<?xml version="1.0" standalone="yes"?>

<svg version="1.1" viewBox="0.0 0.0 161.46719160104988 161.1942257217848" fill="none" stroke="none" stroke-linecap="square" stroke-miterlimit="10" xmlns="http://www.w3.org/2000/svg" xmlns:xlink="http://www.w3.org/1999/xlink"><clipPath id="p.0"><path d="m0 0l161.4672 0l0 161.19423l-161.4672 0l0 -161.19423z" clip-rule="nonzero"></path></clipPath><g clip-path="url(#p.0)"><path fill="#000000" fill-opacity="0.0" d="m0 0l161.4672 0l0 161.19423l-161.4672 0z" fill-rule="evenodd"></path><path fill="#ebe7d2" d="m0 26.845682l0 0c0 -14.826461 12.019221 -26.845682 26.845682 -26.845682l107.37951 0l0 0c7.119919 0 13.948212 2.828376 18.982758 7.862918c5.034546 5.034542 7.862915 11.862845 7.862915 18.982765l0 107.37951c0 14.826462 -12.019211 26.845673 -26.845673 26.845673l-107.37951 0c-14.826461 0 -26.845682 -12.019211 -26.845682 -26.845673z" fill-rule="evenodd"></path><path fill="#000000" fill-opacity="0.0" d="m16.217848 72.073494l104.47244 0l0 83.9685l-104.47244 0z" fill-rule="evenodd"></path><path fill="#6e3d0d" d="m69.1241 24.032612q8.671875 0 15.0 3.75q6.328125 3.75 9.765625 10.0l0.15625 0l0 -11.875l12.734375 0l0 76.5625q0 19.453125 -9.375 29.609367q-9.375 10.15625 -28.90625 10.15625q-14.218754 0 -23.953129 -6.25q-9.71875 -6.25 -10.34375 -18.046867l13.59375 0q0.3125 6.328125 6.75 9.875q6.453125 3.5624924 14.656254 3.5624924q12.03125 0 18.4375 -7.9687424q6.40625 -7.96875 6.40625 -23.671875l0 -5.15625l-0.3125 0q-3.203125 6.875 -10.125 10.9375q-6.90625 4.0625 -15.734375 4.0625q-16.796879 0 -26.843754 -11.5625q-10.031248 -11.5625 -10.031248 -30.3125q0 -18.984379 10.031248 -31.328129q10.046875 -12.34375 28.093754 -12.34375zm-23.750004 42.031254q0 14.765625 6.171875 23.171875q6.171875 8.390625 17.187504 8.390625q11.25 0 17.921875 -8.703125q6.6875 -8.71875 6.6875 -23.328125q0 -13.281254 -6.171875 -21.437504q-6.171875 -8.171875 -17.5 -8.171875q-11.406254 0 -17.859379 8.203125q-6.4375 8.203125 -6.4375 21.875004z" fill-rule="nonzero"></path><path fill="#000000" fill-opacity="0.0" d="m70.698166 166.04462l0 -170.89763l83.968506 0l0 170.89763z" fill-rule="evenodd"></path><path fill="#6e3d0d" d="m110.10042 137.43726l26.390625 -9.875008l0 6.0312576l-5.875 1.984375l0 9.875l5.890625 2.078125l0 5.875l-26.40625 -10.03125l0 -5.9375zm6.5 3.078125l9.703125 3.421875l0 -6.84375l-9.703125 3.328125l0 0.09375zm0.265625 -25.962593q0 -2.125 0.828125 -3.515625q0.8125 -1.390625 2.359375 -2.0625q-1.546875 -1.078125 -2.359375 -2.5625q-0.828125 -1.484375 -0.828125 -3.234375q0 -3.46875 1.78125 -5.21875q1.765625 -1.75 4.890625 -1.75l12.96875 0l0 5.25l-11.0625 0q-2.609375 0 -3.515625 0.765625q-0.921875 0.765625 -0.921875 2.453125q0 1.765625 1.203125 2.640625q1.1875 0.875 3.46875 0.875l10.828125 0l0 5.265625l-11.78125 0q-1.890625 0 -2.796875 0.71875q-0.921875 0.71875 -0.921875 2.4375q0 1.5 1.15625 2.53125q1.15625 1.03125 3.125 1.03125l11.21875 0l0 5.25l-19.125 0l0 -4.9375l2.59375 0l0 -0.078125q-1.578125 -1.125 -2.34375 -2.59375q-0.765625 -1.46875 -0.765625 -3.265625zm0 -31.560394q0 -4.25 1.390625 -6.3125q1.390625 -2.078125 3.921875 -2.078125l10.265625 0q1.15625 0 2.3125 -0.140625q1.15625 -0.15625 1.75 -0.53125l0 5.34375q-0.4375 0.140625 -0.890625 0.234375q-0.46875 0.09375 -0.9375 0.140625q1.140625 1.09375 1.75 2.734375q0.609375 1.640625 0.609375 3.6875q0 2.96875 -1.484375 4.75q-1.5 1.765625 -4.265625 1.765625q-2.671875 0 -4.09375 -1.65625q-1.421875 -1.671875 -1.90625 -6.0625q-0.296875 -3.046875 -0.75 -4.015625q-0.46875 -0.984375 -1.59375 -0.984375q-1.28125 0 -1.921875 0.75q-0.65625 0.75 -0.65625 2.625q0 1.625 0.703125 2.5q0.6875 0.859375 2.1875 1.0l0 5.265625q-3.140625 -0.21875 -4.765625 -2.59375q-1.625 -2.375 -1.625 -6.421875zm14.203125 4.34375q1.140625 0 1.796875 -0.765625q0.640625 -0.78125 0.640625 -2.46875q0 -2.09375 -1.09375 -3.15625q-1.109375 -1.078125 -3.21875 -1.078125l-2.046875 0q0.375 0.46875 0.578125 1.234375q0.1875 0.765625 0.46875 2.765625q0.234375 1.796875 0.9375 2.640625q0.6875 0.828125 1.9375 0.828125zm-13.6875 -32.684505l3.953125 0l11.21875 9.953121l0 -10.656246l3.953125 0l0 17.578121l-3.953125 0l-11.21875 -9.953121l0 9.218746l-3.953125 0l0 -16.140621zm-0.515625 -12.984283q0 -4.4999924 2.78125 -7.2031174q2.765625 -2.703127 7.3125 -2.703127q4.578125 0 7.328125 2.734377q2.75 2.734375 2.75 7.1718674q0 4.453125 -2.765625 7.171875q-2.765625 2.71875 -7.3125 2.71875q-4.53125 0 -7.3125 -2.671875q-2.78125 -2.671875 -2.78125 -7.21875zm10.09375 4.625q3.03125 0 4.578125 -1.234375q1.53125 -1.234375 1.53125 -3.390625q0 -2.234375 -1.59375 -3.4375q-1.59375 -1.2187424 -4.515625 -1.2187424q-2.84375 0 -4.484375 1.1718674q-1.65625 1.171875 -1.65625 3.53125q0 2.109375 1.53125 3.34375q1.53125 1.234375 4.609375 1.234375zm-10.09375 -29.098383q0 -3.671874 1.859375 -5.328124q1.84375 -1.65625 5.828125 -1.65625l11.953125 0l0 5.265625l-10.96875 0q-2.234375 0 -3.375 0.76562405q-1.15625 0.765625 -1.15625 2.59375q0 2.1875 1.296875 3.140625q1.296875 0.9375 4.0 0.9375l10.203125 0l0 5.25l-19.125 0l0 -4.984375l2.671875 0l0 -0.109375q-1.546875 -0.96875 -2.359375 -2.5q-0.828125 -1.53125 -0.828125 -3.375z" fill-rule="nonzero"></path></g></svg>

